<svg width="290" height="90" viewBox="0 0 290 90" fill="none" xmlns="http://www.w3.org/2000/svg">
<g clip-path="url(#clip0_14_304)">
<path fill-rule="evenodd" clip-rule="evenodd" d="M0 50H40V70H20V90H0V50Z" fill="white"/>
<path fill-rule="evenodd" clip-rule="evenodd" d="M60 50H80V90H40V70H60V50Z" fill="white"/>
<path fill-rule="evenodd" clip-rule="evenodd" d="M130 90H90V50H130V90Z" fill="white"/>
<path fill-rule="evenodd" clip-rule="evenodd" d="M180 50H200V90H140V50H160V70H180V50Z" fill="white"/>
<path fill-rule="evenodd" clip-rule="evenodd" d="M210 50H250V70H230V90H210V50Z" fill="white"/>
<path fill-rule="evenodd" clip-rule="evenodd" d="M270 50H290V90C280.033 90 259.967 90 250 90V70H270V50Z" fill="white"/>
<path fill-rule="evenodd" clip-rule="evenodd" d="M20 20H40V40H0V0H20V20Z" fill="#FF638D"/>
<path fill-rule="evenodd" clip-rule="evenodd" d="M50 0H70V40H50V0Z" fill="#FFEF16"/>
<path fill-rule="evenodd" clip-rule="evenodd" d="M100 20H120V40H80V0H100V20Z" fill="#2B83F6"/>
<path d="M146.092 14.8C146.14 15.616 146.164 16.384 146.164 17.104C146.164 18.496 146.08 19.744 145.912 20.848C145.12 20.704 144.496 20.632 144.04 20.632L142.348 20.596C141.724 20.596 141.412 20.632 141.412 20.704C141.364 21.04 141.34 21.748 141.34 22.828C141.34 24.94 141.424 30.628 141.592 39.892C140.896 40.012 140.08 40.072 139.144 40.072H138.1C136.9 40.072 135.796 40.156 134.788 40.324C134.716 40.204 134.656 39.964 134.608 39.604C134.584 39.22 134.584 38.872 134.608 38.56V36.796L134.644 33.556C134.644 29.188 134.548 24.928 134.356 20.776C134.092 20.656 133.72 20.596 133.24 20.596L131.8 20.632C130.984 20.632 130.396 20.572 130.036 20.452C129.964 20.308 129.904 19.912 129.856 19.264C129.808 18.616 129.784 17.884 129.784 17.068C129.784 15.868 129.796 15.004 129.82 14.476H131.368L132.772 14.44H134.788L136.876 14.404C140.452 14.404 143.368 14.536 145.624 14.8H146.092ZM151.147 22.756C151.267 22.732 151.411 22.684 151.579 22.612C151.771 22.516 151.951 22.444 152.119 22.396C153.127 22.084 154.435 21.928 156.043 21.928C157.219 21.928 157.807 21.988 157.807 22.108L157.771 23.98L157.807 28.84L156.835 28.516L154.747 28.012C154.171 27.94 153.655 27.904 153.199 27.904C152.455 27.904 151.891 28.084 151.507 28.444C151.123 28.804 150.943 29.428 150.967 30.316C151.063 33.268 151.111 36.484 151.111 39.964C150.487 40.132 149.971 40.228 149.563 40.252C149.155 40.3 148.639 40.312 148.015 40.288C147.775 40.264 147.391 40.252 146.863 40.252C146.287 40.252 145.735 40.276 145.207 40.324C145.207 37.444 145.195 35.308 145.171 33.916C145.123 30.796 145.099 28.432 145.099 26.824C145.099 25.648 145.123 23.98 145.171 21.82C145.939 21.916 146.539 21.964 146.971 21.964C147.595 21.964 148.207 21.928 148.807 21.856C149.383 21.784 149.947 21.748 150.499 21.748C150.907 21.748 151.111 21.784 151.111 21.856L151.147 22.72V22.756ZM173.941 21.892C173.941 22.012 173.953 22.216 173.977 22.504C174.025 22.792 174.049 23.056 174.049 23.296C174.025 23.92 174.013 24.856 174.013 26.104C174.013 27.784 174.025 29.044 174.049 29.884V32.044L174.085 34.204C174.085 35.62 174.049 37.072 173.977 38.56V38.92C173.977 39.304 173.929 39.604 173.833 39.82C173.737 40.012 173.485 40.144 173.077 40.216H168.505C167.953 40.048 167.677 39.724 167.677 39.244V38.992C167.077 39.376 166.417 39.688 165.697 39.928C164.977 40.144 164.281 40.252 163.609 40.252C162.337 40.252 161.257 39.736 160.369 38.704C159.505 37.672 158.857 36.4 158.425 34.888C157.993 33.352 157.777 31.864 157.777 30.424C157.777 28.84 158.065 27.412 158.641 26.14C159.217 24.844 160.009 23.824 161.017 23.08C162.025 22.336 163.141 21.952 164.365 21.928C165.109 21.928 165.805 21.988 166.453 22.108C167.101 22.228 167.509 22.372 167.677 22.54C167.677 22.42 167.653 22.264 167.605 22.072C167.557 21.88 167.569 21.736 167.641 21.64C167.689 21.592 167.857 21.568 168.145 21.568C168.577 21.568 169.141 21.604 169.837 21.676C170.557 21.724 171.013 21.76 171.205 21.784L173.473 21.892H173.941ZM163.285 31.144C163.285 32.2 163.525 33.088 164.005 33.808C164.485 34.504 165.133 34.852 165.949 34.852C166.477 34.852 166.861 34.708 167.101 34.42C167.341 34.132 167.485 33.748 167.533 33.268C167.605 32.788 167.641 32.068 167.641 31.108V30.172C167.641 29.14 167.617 28.444 167.569 28.084C167.545 27.7 167.437 27.448 167.245 27.328C167.077 27.184 166.765 27.112 166.309 27.112C165.541 27.112 164.917 27.328 164.437 27.76C163.957 28.168 163.645 28.672 163.501 29.272C163.357 29.752 163.285 30.376 163.285 31.144ZM181.45 13.972C181.45 14.62 181.462 15.16 181.486 15.592C181.486 15.832 181.51 16.264 181.558 16.888L181.63 19.192C181.51 19.336 181.318 19.408 181.054 19.408C180.886 19.408 180.658 19.396 180.37 19.372C180.082 19.324 179.842 19.3 179.65 19.3C179.362 19.3 178.906 19.276 178.282 19.228C178.042 19.204 177.634 19.192 177.058 19.192C176.434 19.192 175.954 19.204 175.618 19.228C175.618 18.724 175.594 18.064 175.546 17.248L175.51 16.672C175.462 15.616 175.45 14.68 175.474 13.864L181.45 13.972ZM181.594 21.892C181.594 23.14 181.57 24.964 181.522 27.364L181.486 29.38C181.438 31.588 181.414 33.244 181.414 34.348C181.414 36.412 181.462 38.224 181.558 39.784C181.438 39.952 181.186 40.06 180.802 40.108C180.442 40.18 179.938 40.216 179.29 40.216C178.546 40.216 178.03 40.204 177.742 40.18C176.806 40.132 176.014 40.204 175.366 40.396C175.486 38.788 175.546 37.168 175.546 35.536C175.546 34.528 175.522 33.04 175.474 31.072C175.426 29.44 175.402 28.024 175.402 26.824C175.402 25.048 175.474 23.332 175.618 21.676C175.954 21.628 176.242 21.604 176.482 21.604C176.698 21.604 176.866 21.616 176.986 21.64C178.474 21.712 179.638 21.736 180.478 21.712L181.594 21.892ZM190.523 22.036C191.771 21.988 192.875 21.928 193.835 21.856L194.339 21.82C194.507 21.796 194.675 21.796 194.843 21.82C195.035 21.82 195.191 21.82 195.311 21.82H196.139C196.235 22.78 196.283 23.332 196.283 23.476C196.283 23.596 196.259 23.968 196.211 24.592L196.175 24.988L196.139 25.78C196.139 25.948 196.163 26.224 196.211 26.608H190.595C190.595 30.424 190.583 32.764 190.559 33.628C190.919 34.084 191.567 34.42 192.503 34.636C193.439 34.852 194.411 34.96 195.419 34.96L196.175 34.924V35.248L196.211 35.392V35.356C196.355 36.364 196.427 37.264 196.427 38.056C196.427 38.824 196.319 39.52 196.103 40.144C195.479 40.192 194.843 40.216 194.195 40.216C192.011 40.216 190.091 39.964 188.435 39.46C186.803 38.932 185.723 38.044 185.195 36.796C184.979 35.5 184.835 34.216 184.763 32.944C184.691 31.648 184.655 30.172 184.655 28.516V26.716C184.343 26.74 184.055 26.752 183.791 26.752C183.551 26.728 183.335 26.716 183.143 26.716H182.063L182.171 21.964C182.819 21.988 183.671 22 184.727 22L184.763 15.124C185.291 15.076 185.747 15.052 186.131 15.052C186.515 15.052 186.971 15.076 187.499 15.124L187.751 15.16C188.327 15.208 188.771 15.232 189.083 15.232C189.539 15.232 190.007 15.196 190.487 15.124V21.676L190.523 22.036ZM216.116 30.784C215.804 30.832 215.024 30.916 213.776 31.036C213.536 31.06 213.248 31.084 212.912 31.108C212.576 31.108 212.24 31.144 211.904 31.216L211.652 38.848V40.108C210.644 40.228 209.18 40.288 207.26 40.288C205.604 40.288 204.608 40.168 204.272 39.928L204.308 34.06V29.344C204.332 26.824 204.344 22.18 204.344 15.412C205.376 15.244 206.864 15.088 208.808 14.944C210.776 14.8 212.66 14.728 214.46 14.728C217.412 14.728 219.764 14.944 221.516 15.376V16.06C221.516 16.156 221.516 16.36 221.516 16.672C221.54 16.96 221.564 17.62 221.588 18.652C221.588 19.492 221.564 20.248 221.516 20.92L218.888 21.064L217.556 21.136L216.908 21.172L214.964 21.28C213.596 21.328 212.564 21.388 211.868 21.46L211.76 21.712C211.688 21.928 211.652 22.24 211.652 22.648C211.652 23.032 211.676 23.416 211.724 23.8C211.772 24.16 211.82 24.376 211.868 24.448C212.468 24.52 213.044 24.556 213.596 24.556C214.7 24.556 215.672 24.496 216.512 24.376C216.632 24.64 216.692 25.144 216.692 25.888V26.608L216.656 27.472L216.62 28.156V28.84C216.62 29.344 216.644 29.908 216.692 30.532C216.692 30.652 216.5 30.736 216.116 30.784ZM227.821 13.972C227.821 14.62 227.833 15.16 227.857 15.592C227.857 15.832 227.881 16.264 227.929 16.888L228.001 19.192C227.881 19.336 227.689 19.408 227.425 19.408C227.257 19.408 227.029 19.396 226.741 19.372C226.453 19.324 226.213 19.3 226.021 19.3C225.733 19.3 225.277 19.276 224.653 19.228C224.413 19.204 224.005 19.192 223.429 19.192C222.805 19.192 222.325 19.204 221.989 19.228C221.989 18.724 221.965 18.064 221.917 17.248L221.881 16.672C221.833 15.616 221.821 14.68 221.845 13.864L227.821 13.972ZM227.965 21.892C227.965 23.14 227.941 24.964 227.893 27.364L227.857 29.38C227.809 31.588 227.785 33.244 227.785 34.348C227.785 36.412 227.833 38.224 227.929 39.784C227.809 39.952 227.557 40.06 227.173 40.108C226.813 40.18 226.309 40.216 225.661 40.216C224.917 40.216 224.401 40.204 224.113 40.18C223.177 40.132 222.385 40.204 221.737 40.396C221.857 38.788 221.917 37.168 221.917 35.536C221.917 34.528 221.893 33.04 221.845 31.072C221.797 29.44 221.773 28.024 221.773 26.824C221.773 25.048 221.845 23.332 221.989 21.676C222.325 21.628 222.613 21.604 222.853 21.604C223.069 21.604 223.237 21.616 223.357 21.64C224.845 21.712 226.009 21.736 226.849 21.712L227.965 21.892ZM235.202 23.296C235.226 23.296 235.226 23.296 235.202 23.296C235.202 23.272 235.214 23.26 235.238 23.26C235.814 22.876 236.474 22.576 237.218 22.36C237.986 22.12 238.742 22 239.486 22C241.07 22 242.294 22.384 243.158 23.152C243.83 23.752 244.166 25.732 244.166 29.092C244.166 30.076 244.142 31.576 244.094 33.592C244.046 35.32 244.022 36.556 244.022 37.3C244.022 38.116 244.046 39.028 244.094 40.036C242.774 40.228 241.478 40.3 240.206 40.252H238.514C238.466 39.532 238.442 38.14 238.442 36.076V34.276C238.442 33.1 238.418 32.248 238.37 31.72L238.334 31.504V31.252C238.286 30.58 238.226 30.052 238.154 29.668C238.106 29.284 237.95 28.924 237.686 28.588C237.446 28.252 237.062 28.084 236.534 28.084C236.15 28.084 235.802 28.252 235.49 28.588C235.178 28.924 235.01 29.428 234.986 30.1C234.962 30.46 234.95 31.012 234.95 31.756C234.95 32.356 234.974 33.232 235.022 34.384C235.07 35.584 235.094 36.484 235.094 37.084C235.094 38.164 235.046 39.124 234.95 39.964C234.302 40.132 233.774 40.228 233.366 40.252C232.982 40.3 232.55 40.312 232.07 40.288C231.854 40.264 231.506 40.252 231.026 40.252C230.474 40.252 229.934 40.276 229.406 40.324C229.406 37.444 229.394 35.308 229.37 33.916C229.322 30.796 229.298 28.432 229.298 26.824C229.298 25.648 229.322 23.98 229.37 21.82C230.138 21.916 230.738 21.964 231.17 21.964C231.578 21.964 231.974 21.94 232.358 21.892L232.97 21.82C233.498 21.772 233.906 21.748 234.194 21.748C234.77 21.748 235.082 21.832 235.13 22C235.178 22.288 235.202 22.708 235.202 23.26V23.296ZM254.937 14.692C254.937 14.62 255.249 14.548 255.873 14.476C256.497 14.38 257.181 14.332 257.925 14.332C258.885 14.332 259.761 14.416 260.553 14.584V17.032C260.553 19.312 260.601 22.636 260.697 27.004C260.769 29.692 260.805 32.56 260.805 35.608C260.805 37.696 260.793 39.208 260.769 40.144H259.761L258.825 40.18C257.889 40.18 256.605 40.144 254.973 40.072C254.853 39.952 254.793 39.82 254.793 39.676L254.757 38.848L254.685 38.956C254.349 39.364 253.989 39.664 253.605 39.856C253.221 40.024 252.777 40.108 252.273 40.108C251.937 40.108 251.685 40.096 251.517 40.072H251.553C249.777 39.904 248.409 39.328 247.449 38.344C246.513 37.36 245.877 36.16 245.541 34.744C245.229 33.328 245.049 31.66 245.001 29.74C245.001 27.94 245.277 26.356 245.829 24.988C246.381 23.596 247.197 22.684 248.277 22.252C249.189 21.916 250.329 21.748 251.697 21.748C253.017 21.748 254.061 21.856 254.829 22.072L254.793 20.812C254.769 20.212 254.757 19.444 254.757 18.508C254.757 18.028 254.817 16.888 254.937 15.088V14.692ZM250.401 28.732C250.257 29.116 250.185 29.788 250.185 30.748C250.185 31.972 250.437 33.04 250.941 33.952C251.445 34.84 252.105 35.284 252.921 35.284C253.809 35.284 254.373 34.888 254.613 34.096C254.853 33.28 254.973 31.996 254.973 30.244C254.973 28.948 254.937 28.048 254.865 27.544C254.817 27.04 254.685 26.704 254.469 26.536C254.253 26.368 253.869 26.284 253.317 26.284C252.501 26.284 251.841 26.5 251.337 26.932C250.833 27.364 250.521 28 250.401 28.84V28.732ZM267.605 32.008C267.629 32.8 267.665 33.388 267.713 33.772C267.785 34.132 267.953 34.516 268.217 34.924C268.409 35.284 268.661 35.56 268.973 35.752C269.285 35.944 269.609 36.04 269.945 36.04C270.449 36.04 270.857 35.776 271.169 35.248C271.481 34.696 271.613 33.892 271.565 32.836C272.261 32.932 273.005 32.956 273.797 32.908L277.181 33.088C277.181 34.168 277.097 35.26 276.929 36.364C276.785 37.468 276.497 38.308 276.065 38.884C275.585 39.556 274.889 40.012 273.977 40.252C273.089 40.516 272.045 40.648 270.845 40.648C270.389 40.648 269.753 40.624 268.937 40.576C268.553 40.552 267.989 40.54 267.245 40.54C266.501 40.444 265.757 40.18 265.013 39.748C263.861 38.836 263.009 37.54 262.457 35.86C261.905 34.18 261.629 32.356 261.629 30.388C261.629 28.324 261.917 26.428 262.493 24.7C262.973 23.62 263.861 22.78 265.157 22.18C266.453 21.58 267.893 21.28 269.477 21.28C270.341 21.28 271.181 21.376 271.997 21.568C273.845 21.928 275.189 22.804 276.029 24.196C276.893 25.564 277.325 27.208 277.325 29.128C277.325 29.44 277.301 29.98 277.253 30.748C276.797 30.868 275.753 30.988 274.121 31.108C272.489 31.204 270.965 31.252 269.549 31.252H267.605V32.008ZM271.133 25.528C270.773 25.312 270.449 25.204 270.161 25.204C269.321 25.204 268.721 25.396 268.361 25.78C268.001 26.164 267.785 26.704 267.713 27.4C267.689 27.496 267.677 27.604 267.677 27.724C267.677 27.868 267.749 27.952 267.893 27.976C268.037 28 268.397 28 268.973 27.976H270.557L271.637 28.012H272.105C272.177 28.036 272.225 28.036 272.249 28.012C272.273 27.988 272.285 27.94 272.285 27.868V27.724C272.285 27.22 272.189 26.776 271.997 26.392C271.829 26.008 271.589 25.732 271.277 25.564L271.133 25.528ZM284.213 22.756C284.333 22.732 284.477 22.684 284.645 22.612C284.837 22.516 285.017 22.444 285.185 22.396C286.193 22.084 287.501 21.928 289.109 21.928C290.285 21.928 290.873 21.988 290.873 22.108L290.837 23.98L290.873 28.84L289.901 28.516L287.813 28.012C287.237 27.94 286.721 27.904 286.265 27.904C285.521 27.904 284.957 28.084 284.573 28.444C284.189 28.804 284.009 29.428 284.033 30.316C284.129 33.268 284.177 36.484 284.177 39.964C283.553 40.132 283.037 40.228 282.629 40.252C282.221 40.3 281.705 40.312 281.081 40.288C280.841 40.264 280.457 40.252 279.929 40.252C279.353 40.252 278.801 40.276 278.273 40.324C278.273 37.444 278.261 35.308 278.237 33.916C278.189 30.796 278.165 28.432 278.165 26.824C278.165 25.648 278.189 23.98 278.237 21.82C279.005 21.916 279.605 21.964 280.037 21.964C280.661 21.964 281.273 21.928 281.873 21.856C282.449 21.784 283.013 21.748 283.565 21.748C283.973 21.748 284.177 21.784 284.177 21.856L284.213 22.72V22.756Z" fill="black"/>
</g>
<defs>
<clipPath id="clip0_14_304">
<rect width="290" height="90" fill="white"/>
</clipPath>
</defs>
</svg>
