<svg width="180" height="116" viewBox="0 0 180 116" fill="none" xmlns="http://www.w3.org/2000/svg">
<rect y="27.0201" width="11.6466" height="11.6466" fill="white"/>
<rect y="38.6667" width="11.6466" height="11.6466" fill="white"/>
<rect x="21.4297" y="38.6667" width="11.6466" height="11.6466" fill="white"/>
<rect x="32.6104" y="38.6667" width="11.6466" height="11.6466" fill="white"/>
<rect x="32.6104" y="27.0201" width="11.6466" height="11.6466" fill="white"/>
<rect x="11.6466" y="27.0201" width="11.6466" height="11.6466" fill="white"/>
<rect x="54.0402" y="81.0602" width="11.6466" height="11.6466" fill="black"/>
<rect x="54.0402" y="92.7068" width="11.6466" height="11.6466" fill="black"/>
<rect x="75.4699" y="92.7068" width="11.6466" height="11.6466" fill="black"/>
<rect x="86.6506" y="92.7068" width="11.6466" height="11.6466" fill="black"/>
<rect x="86.6506" y="81.0602" width="11.6466" height="11.6466" fill="black"/>
<rect x="65.6867" y="81.0602" width="11.6466" height="11.6466" fill="black"/>
<rect x="113.671" y="27.0201" width="11.6466" height="11.6466" fill="white"/>
<rect x="113.671" y="38.6667" width="11.6466" height="11.6466" fill="white"/>
<rect x="135.1" y="38.6667" width="11.6466" height="11.6466" fill="white"/>
<rect x="146.281" y="38.6667" width="11.6466" height="11.6466" fill="white"/>
<rect x="146.281" y="27.0201" width="11.6466" height="11.6466" fill="white"/>
<rect x="125.317" y="27.0201" width="11.6466" height="11.6466" fill="white"/>
<rect width="11.6466" height="11.6466" fill="#ED6D8E"/>
<rect y="11.6466" width="11.6466" height="11.6466" fill="#ED6D8E"/>
<rect x="11.6466" y="11.6466" width="11.6466" height="11.6466" fill="#ED6D8E"/>
<rect x="27.0201" width="11.6466" height="11.6466" fill="#FCEF53"/>
<rect x="27.0201" y="11.6466" width="11.6466" height="11.6466" fill="#FCEF53"/>
<rect x="38.6666" y="81.0602" width="11.6466" height="11.6466" fill="black"/>
<rect x="38.6666" y="92.7068" width="11.6466" height="11.6466" fill="black"/>
<rect x="103.888" y="54.0402" width="11.6466" height="11.6466" fill="black"/>
<rect x="103.888" y="65.6868" width="11.6466" height="11.6466" fill="black"/>
<rect x="42.3936" width="11.6466" height="11.6466" fill="#4581EE"/>
<rect x="42.3936" y="11.6466" width="11.6466" height="11.6466" fill="#4581EE"/>
<rect x="54.0401" y="11.6466" width="11.6466" height="11.6466" fill="#4581EE"/>
<rect x="12.3574" y="81" width="11" height="12" fill="black"/>
<rect x="12.3574" y="81" width="11" height="12" fill="black"/>
<rect x="23.3574" y="81" width="12" height="12" fill="black"/>
<rect x="12.3574" y="93" width="11" height="11" fill="black"/>
<rect x="0.357422" y="81" width="12" height="12" fill="black"/>
<rect x="0.357422" y="104" width="12" height="12" fill="black"/>
<rect x="0.357422" y="93" width="12" height="11" fill="black"/>
<rect y="54.0402" width="11.6466" height="11.6466" fill="black"/>
<rect x="11.6466" y="54.0402" width="11.6466" height="11.6466" fill="black"/>
<rect x="11.6466" y="65.6868" width="11.6466" height="11.6466" fill="black"/>
<rect x="23.2932" y="54.0402" width="11.6466" height="11.6466" fill="black"/>
<rect x="119.261" y="54.0402" width="11.6466" height="11.6466" fill="black"/>
<rect x="130.908" y="54.0402" width="11.6466" height="11.6466" fill="black"/>
<rect x="130.908" y="65.6868" width="11.6466" height="11.6466" fill="black"/>
<rect x="142.554" y="54.0402" width="11.6466" height="11.6466" fill="black"/>
<rect x="65.2208" y="65.6868" width="11.6466" height="11.6466" fill="black"/>
<rect x="65.2208" y="54.0402" width="11.6466" height="11.6466" fill="black"/>
<rect x="76.8674" y="54.0402" width="11.6466" height="11.6466" fill="black"/>
<rect x="88.514" y="54.0402" width="11.6466" height="11.6466" fill="black"/>
<rect x="88.514" y="65.6868" width="11.6466" height="11.6466" fill="black"/>
<rect x="38.3574" y="66" width="11" height="12" fill="black"/>
<rect x="38.2008" y="54.0402" width="11.6466" height="11.6466" fill="black"/>
<rect x="49.8474" y="54.0402" width="11.6466" height="11.6466" fill="black"/>
<rect x="38.2008" y="65.6868" width="11.6466" height="11.6466" fill="black"/>
<rect x="38.2008" y="54.0402" width="11.6466" height="11.6466" fill="black"/>
<rect x="49.8474" y="54.0402" width="11.6466" height="11.6466" fill="black"/>
<rect x="38.2008" y="65.6868" width="11.6466" height="11.6466" fill="black"/>
<rect x="156.064" y="81.0602" width="11.6466" height="11.6466" fill="black"/>
<rect x="167.711" y="81.0602" width="11.6466" height="11.6466" fill="black"/>
<rect x="156.064" y="92.7068" width="11.6466" height="11.6466" fill="black"/>
<rect x="75.3574" y="27" width="11" height="11" fill="white"/>
<rect x="75.3574" y="38" width="11" height="12" fill="white"/>
<rect x="86.3574" y="38" width="12" height="12" fill="white"/>
<rect x="98.3574" y="38" width="12" height="12" fill="white"/>
<rect x="98.3574" y="27" width="12" height="11" fill="white"/>
<rect x="129.044" y="81.0602" width="11.6466" height="11.6466" fill="black"/>
<rect x="140.691" y="81.0602" width="11.6466" height="11.6466" fill="black"/>
<rect x="129.044" y="92.7068" width="11.6466" height="11.6466" fill="black"/>
<rect x="140.691" y="92.7068" width="11.6466" height="11.6466" fill="black"/>
<rect x="47.5181" y="27.0201" width="11.6466" height="11.6466" fill="white"/>
<rect x="59.1646" y="27.0201" width="11.6466" height="11.6466" fill="white"/>
<rect x="47.5181" y="38.6667" width="11.6466" height="11.6466" fill="white"/>
<rect x="59.1646" y="38.6667" width="11.6466" height="11.6466" fill="white"/>
<rect x="113.671" y="81.0602" width="11.6466" height="11.6466" fill="black"/>
<rect x="102.024" y="92.7068" width="11.6466" height="11.6466" fill="black"/>
<rect x="113.671" y="92.7068" width="11.6466" height="11.6466" fill="black"/>
</svg>
